solid miter-fence-bar
   facet normal 0.000000e+000 1.000000e+000 0.000000e+000
      outer loop
         vertex 0.000000e+000 3.000000e+000 0.000000e+000
         vertex 3.778703e+000 3.000000e+000 3.544517e+000
         vertex 4.050000e+000 3.000000e+000 3.354557e+000
      endloop
   endfacet
   facet normal 0.000000e+000 1.000000e+000 0.000000e+000
      outer loop
         vertex 4.350162e+000 3.000000e+000 1.732146e+002
         vertex 4.670068e+000 3.000000e+000 1.731289e+002
         vertex 4.670068e+000 3.000000e+000 6.871141e+000
      endloop
   endfacet
   facet normal 0.000000e+000 1.000000e+000 0.000000e+000
      outer loop
         vertex 4.670068e+000 3.000000e+000 6.871141e+000
         vertex 4.350162e+000 3.000000e+000 6.785422e+000
         vertex 0.000000e+000 3.000000e+000 1.800000e+002
      endloop
   endfacet
   facet normal 0.000000e+000 1.000000e+000 0.000000e+000
      outer loop
         vertex 0.000000e+000 3.000000e+000 1.800000e+002
         vertex 4.350162e+000 3.000000e+000 6.785422e+000
         vertex 4.050000e+000 3.000000e+000 6.645449e+000
      endloop
   endfacet
   facet normal 0.000000e+000 1.000000e+000 0.000000e+000
      outer loop
         vertex 0.000000e+000 3.000000e+000 1.800000e+002
         vertex 4.050000e+000 3.000000e+000 6.645449e+000
         vertex 3.778703e+000 3.000000e+000 6.455489e+000
      endloop
   endfacet
   facet normal 0.000000e+000 1.000000e+000 0.000000e+000
      outer loop
         vertex 4.050000e+000 3.000000e+000 3.354557e+000
         vertex 4.350162e+000 3.000000e+000 3.214590e+000
         vertex 0.000000e+000 3.000000e+000 0.000000e+000
      endloop
   endfacet
   facet normal 0.000000e+000 1.000000e+000 0.000000e+000
      outer loop
         vertex 0.000000e+000 3.000000e+000 0.000000e+000
         vertex 4.350162e+000 3.000000e+000 3.214590e+000
         vertex 4.670068e+000 3.000000e+000 3.128871e+000
      endloop
   endfacet
   facet normal 0.000000e+000 1.000000e+000 0.000000e+000
      outer loop
         vertex 0.000000e+000 3.000000e+000 0.000000e+000
         vertex 4.670068e+000 3.000000e+000 3.128871e+000
         vertex 1.000000e+001 3.000000e+000 0.000000e+000
      endloop
   endfacet
   facet normal 0.000000e+000 1.000000e+000 0.000000e+000
      outer loop
         vertex 1.000000e+001 3.000000e+000 0.000000e+000
         vertex 4.670068e+000 3.000000e+000 3.128871e+000
         vertex 5.000000e+000 3.000000e+000 3.100000e+000
      endloop
   endfacet
   facet normal 0.000000e+000 1.000000e+000 0.000000e+000
      outer loop
         vertex 1.000000e+001 3.000000e+000 0.000000e+000
         vertex 5.000000e+000 3.000000e+000 3.100000e+000
         vertex 5.329932e+000 3.000000e+000 3.128871e+000
      endloop
   endfacet
   facet normal 0.000000e+000 1.000000e+000 0.000000e+000
      outer loop
         vertex 6.455484e+000 3.000000e+000 6.221302e+000
         vertex 6.221296e+000 3.000000e+000 6.455489e+000
         vertex 1.000000e+001 3.000000e+000 1.800000e+002
      endloop
   endfacet
   facet normal 0.000000e+000 1.000000e+000 0.000000e+000
      outer loop
         vertex 4.050000e+000 3.000000e+000 1.766455e+002
         vertex 0.000000e+000 3.000000e+000 1.800000e+002
         vertex 4.350162e+000 3.000000e+000 1.767854e+002
      endloop
   endfacet
   facet normal 0.000000e+000 1.000000e+000 0.000000e+000
      outer loop
         vertex 4.350162e+000 3.000000e+000 1.767854e+002
         vertex 0.000000e+000 3.000000e+000 1.800000e+002
         vertex 4.670068e+000 3.000000e+000 1.768711e+002
      endloop
   endfacet
   facet normal 0.000000e+000 1.000000e+000 0.000000e+000
      outer loop
         vertex 3.778703e+000 3.000000e+000 6.455489e+000
         vertex 3.544515e+000 3.000000e+000 6.221302e+000
         vertex 0.000000e+000 3.000000e+000 1.800000e+002
      endloop
   endfacet
   facet normal 0.000000e+000 1.000000e+000 0.000000e+000
      outer loop
         vertex 0.000000e+000 3.000000e+000 1.800000e+002
         vertex 3.544515e+000 3.000000e+000 6.221302e+000
         vertex 3.354552e+000 3.000000e+000 5.950004e+000
      endloop
   endfacet
   facet normal 0.000000e+000 1.000000e+000 0.000000e+000
      outer loop
         vertex 0.000000e+000 3.000000e+000 1.800000e+002
         vertex 3.354552e+000 3.000000e+000 5.950004e+000
         vertex 0.000000e+000 3.000000e+000 0.000000e+000
      endloop
   endfacet
   facet normal 0.000000e+000 1.000000e+000 0.000000e+000
      outer loop
         vertex 0.000000e+000 3.000000e+000 0.000000e+000
         vertex 3.354552e+000 3.000000e+000 5.950004e+000
         vertex 3.214584e+000 3.000000e+000 5.649842e+000
      endloop
   endfacet
   facet normal 0.000000e+000 1.000000e+000 0.000000e+000
      outer loop
         vertex 0.000000e+000 3.000000e+000 0.000000e+000
         vertex 3.214584e+000 3.000000e+000 5.649842e+000
         vertex 3.128865e+000 3.000000e+000 5.329937e+000
      endloop
   endfacet
   facet normal 0.000000e+000 1.000000e+000 0.000000e+000
      outer loop
         vertex 1.000000e+001 3.000000e+000 0.000000e+000
         vertex 6.221296e+000 3.000000e+000 3.544517e+000
         vertex 6.455484e+000 3.000000e+000 3.778703e+000
      endloop
   endfacet
   facet normal 0.000000e+000 1.000000e+000 0.000000e+000
      outer loop
         vertex 6.455484e+000 3.000000e+000 6.221302e+000
         vertex 1.000000e+001 3.000000e+000 1.800000e+002
         vertex 6.645448e+000 3.000000e+000 5.950004e+000
      endloop
   endfacet
   facet normal 0.000000e+000 1.000000e+000 0.000000e+000
      outer loop
         vertex 4.050000e+000 3.000000e+000 1.766455e+002
         vertex 3.778703e+000 3.000000e+000 1.764555e+002
         vertex 0.000000e+000 3.000000e+000 1.800000e+002
      endloop
   endfacet
   facet normal 0.000000e+000 1.000000e+000 0.000000e+000
      outer loop
         vertex 0.000000e+000 3.000000e+000 1.800000e+002
         vertex 3.778703e+000 3.000000e+000 1.764555e+002
         vertex 3.544515e+000 3.000000e+000 1.762213e+002
      endloop
   endfacet
   facet normal 0.000000e+000 1.000000e+000 0.000000e+000
      outer loop
         vertex 0.000000e+000 3.000000e+000 1.800000e+002
         vertex 3.544515e+000 3.000000e+000 1.762213e+002
         vertex 3.354552e+000 3.000000e+000 1.759500e+002
      endloop
   endfacet
   facet normal 0.000000e+000 1.000000e+000 0.000000e+000
      outer loop
         vertex 3.128865e+000 3.000000e+000 5.329937e+000
         vertex 3.100000e+000 3.000000e+000 5.000003e+000
         vertex 0.000000e+000 3.000000e+000 0.000000e+000
      endloop
   endfacet
   facet normal 0.000000e+000 1.000000e+000 0.000000e+000
      outer loop
         vertex 0.000000e+000 3.000000e+000 0.000000e+000
         vertex 3.100000e+000 3.000000e+000 5.000003e+000
         vertex 3.128865e+000 3.000000e+000 4.670069e+000
      endloop
   endfacet
   facet normal 0.000000e+000 1.000000e+000 0.000000e+000
      outer loop
         vertex 0.000000e+000 3.000000e+000 0.000000e+000
         vertex 3.128865e+000 3.000000e+000 4.670069e+000
         vertex 3.214584e+000 3.000000e+000 4.350163e+000
      endloop
   endfacet
   facet normal 0.000000e+000 1.000000e+000 0.000000e+000
      outer loop
         vertex 5.329932e+000 3.000000e+000 3.128871e+000
         vertex 5.649838e+000 3.000000e+000 3.214590e+000
         vertex 1.000000e+001 3.000000e+000 0.000000e+000
      endloop
   endfacet
   facet normal 0.000000e+000 1.000000e+000 0.000000e+000
      outer loop
         vertex 1.000000e+001 3.000000e+000 0.000000e+000
         vertex 5.649838e+000 3.000000e+000 3.214590e+000
         vertex 5.950000e+000 3.000000e+000 3.354557e+000
      endloop
   endfacet
   facet normal 0.000000e+000 1.000000e+000 0.000000e+000
      outer loop
         vertex 1.000000e+001 3.000000e+000 0.000000e+000
         vertex 5.950000e+000 3.000000e+000 3.354557e+000
         vertex 6.221296e+000 3.000000e+000 3.544517e+000
      endloop
   endfacet
   facet normal 0.000000e+000 1.000000e+000 0.000000e+000
      outer loop
         vertex 6.221296e+000 3.000000e+000 6.455489e+000
         vertex 5.950000e+000 3.000000e+000 6.645449e+000
         vertex 1.000000e+001 3.000000e+000 1.800000e+002
      endloop
   endfacet
   facet normal 0.000000e+000 1.000000e+000 0.000000e+000
      outer loop
         vertex 1.000000e+001 3.000000e+000 1.800000e+002
         vertex 5.950000e+000 3.000000e+000 6.645449e+000
         vertex 5.649838e+000 3.000000e+000 6.785422e+000
      endloop
   endfacet
   facet normal 0.000000e+000 1.000000e+000 0.000000e+000
      outer loop
         vertex 1.000000e+001 3.000000e+000 1.800000e+002
         vertex 5.649838e+000 3.000000e+000 6.785422e+000
         vertex 5.329932e+000 3.000000e+000 6.871141e+000
      endloop
   endfacet
   facet normal 0.000000e+000 1.000000e+000 0.000000e+000
      outer loop
         vertex 5.649838e+000 3.000000e+000 1.732146e+002
         vertex 5.950000e+000 3.000000e+000 1.733546e+002
         vertex 5.329932e+000 3.000000e+000 6.871141e+000
      endloop
   endfacet
   facet normal 0.000000e+000 1.000000e+000 0.000000e+000
      outer loop
         vertex 5.329932e+000 3.000000e+000 6.871141e+000
         vertex 5.950000e+000 3.000000e+000 1.733546e+002
         vertex 6.221296e+000 3.000000e+000 1.735445e+002
      endloop
   endfacet
   facet normal 0.000000e+000 1.000000e+000 0.000000e+000
      outer loop
         vertex 5.329932e+000 3.000000e+000 6.871141e+000
         vertex 6.221296e+000 3.000000e+000 1.735445e+002
         vertex 6.455484e+000 3.000000e+000 1.737787e+002
      endloop
   endfacet
   facet normal 0.000000e+000 1.000000e+000 0.000000e+000
      outer loop
         vertex 6.455484e+000 3.000000e+000 1.762213e+002
         vertex 6.221296e+000 3.000000e+000 1.764555e+002
         vertex 1.000000e+001 3.000000e+000 1.800000e+002
      endloop
   endfacet
   facet normal 0.000000e+000 1.000000e+000 0.000000e+000
      outer loop
         vertex 1.000000e+001 3.000000e+000 1.800000e+002
         vertex 6.221296e+000 3.000000e+000 1.764555e+002
         vertex 5.950000e+000 3.000000e+000 1.766455e+002
      endloop
   endfacet
   facet normal 0.000000e+000 1.000000e+000 0.000000e+000
      outer loop
         vertex 6.455484e+000 3.000000e+000 3.778703e+000
         vertex 6.645448e+000 3.000000e+000 4.050002e+000
         vertex 1.000000e+001 3.000000e+000 0.000000e+000
      endloop
   endfacet
   facet normal 0.000000e+000 1.000000e+000 0.000000e+000
      outer loop
         vertex 1.000000e+001 3.000000e+000 0.000000e+000
         vertex 6.645448e+000 3.000000e+000 4.050002e+000
         vertex 6.785416e+000 3.000000e+000 4.350163e+000
      endloop
   endfacet
   facet normal 0.000000e+000 1.000000e+000 0.000000e+000
      outer loop
         vertex 1.000000e+001 3.000000e+000 0.000000e+000
         vertex 6.785416e+000 3.000000e+000 4.350163e+000
         vertex 6.871134e+000 3.000000e+000 4.670069e+000
      endloop
   endfacet
   facet normal 0.000000e+000 1.000000e+000 0.000000e+000
      outer loop
         vertex 4.670068e+000 3.000000e+000 6.871141e+000
         vertex 4.670068e+000 3.000000e+000 1.731289e+002
         vertex 5.000000e+000 3.000000e+000 6.900005e+000
      endloop
   endfacet
   facet normal 0.000000e+000 1.000000e+000 0.000000e+000
      outer loop
         vertex 5.000000e+000 3.000000e+000 6.900005e+000
         vertex 4.670068e+000 3.000000e+000 1.731289e+002
         vertex 5.000000e+000 3.000000e+000 1.731000e+002
      endloop
   endfacet
   facet normal 0.000000e+000 1.000000e+000 0.000000e+000
      outer loop
         vertex 5.000000e+000 3.000000e+000 6.900005e+000
         vertex 5.000000e+000 3.000000e+000 1.731000e+002
         vertex 5.329932e+000 3.000000e+000 6.871141e+000
      endloop
   endfacet
   facet normal 0.000000e+000 1.000000e+000 0.000000e+000
      outer loop
         vertex 5.329932e+000 3.000000e+000 6.871141e+000
         vertex 5.000000e+000 3.000000e+000 1.731000e+002
         vertex 5.329932e+000 3.000000e+000 1.731289e+002
      endloop
   endfacet
   facet normal 0.000000e+000 1.000000e+000 0.000000e+000
      outer loop
         vertex 5.329932e+000 3.000000e+000 6.871141e+000
         vertex 5.329932e+000 3.000000e+000 1.731289e+002
         vertex 5.649838e+000 3.000000e+000 1.732146e+002
      endloop
   endfacet
   facet normal 0.000000e+000 1.000000e+000 0.000000e+000
      outer loop
         vertex 5.950000e+000 3.000000e+000 1.766455e+002
         vertex 5.649838e+000 3.000000e+000 1.767854e+002
         vertex 1.000000e+001 3.000000e+000 1.800000e+002
      endloop
   endfacet
   facet normal 0.000000e+000 1.000000e+000 0.000000e+000
      outer loop
         vertex 1.000000e+001 3.000000e+000 1.800000e+002
         vertex 5.649838e+000 3.000000e+000 1.767854e+002
         vertex 5.329932e+000 3.000000e+000 1.768711e+002
      endloop
   endfacet
   facet normal 0.000000e+000 1.000000e+000 0.000000e+000
      outer loop
         vertex 1.000000e+001 3.000000e+000 1.800000e+002
         vertex 5.329932e+000 3.000000e+000 1.768711e+002
         vertex 0.000000e+000 3.000000e+000 1.800000e+002
      endloop
   endfacet
   facet normal 0.000000e+000 1.000000e+000 0.000000e+000
      outer loop
         vertex 0.000000e+000 3.000000e+000 1.800000e+002
         vertex 5.329932e+000 3.000000e+000 1.768711e+002
         vertex 5.000000e+000 3.000000e+000 1.769000e+002
      endloop
   endfacet
   facet normal 0.000000e+000 1.000000e+000 0.000000e+000
      outer loop
         vertex 0.000000e+000 3.000000e+000 1.800000e+002
         vertex 5.000000e+000 3.000000e+000 1.769000e+002
         vertex 4.670068e+000 3.000000e+000 1.768711e+002
      endloop
   endfacet
   facet normal 0.000000e+000 1.000000e+000 0.000000e+000
      outer loop
         vertex 3.354552e+000 3.000000e+000 1.759500e+002
         vertex 3.214584e+000 3.000000e+000 1.756499e+002
         vertex 0.000000e+000 3.000000e+000 1.800000e+002
      endloop
   endfacet
   facet normal 0.000000e+000 1.000000e+000 0.000000e+000
      outer loop
         vertex 0.000000e+000 3.000000e+000 1.800000e+002
         vertex 3.214584e+000 3.000000e+000 1.756499e+002
         vertex 3.128865e+000 3.000000e+000 1.753299e+002
      endloop
   endfacet
   facet normal 0.000000e+000 1.000000e+000 0.000000e+000
      outer loop
         vertex 0.000000e+000 3.000000e+000 1.800000e+002
         vertex 3.128865e+000 3.000000e+000 1.753299e+002
         vertex 3.100000e+000 3.000000e+000 1.750000e+002
      endloop
   endfacet
   facet normal 0.000000e+000 1.000000e+000 0.000000e+000
      outer loop
         vertex 3.544515e+000 3.000000e+000 1.737787e+002
         vertex 3.778703e+000 3.000000e+000 1.735445e+002
         vertex 4.670068e+000 3.000000e+000 6.871141e+000
      endloop
   endfacet
   facet normal 0.000000e+000 1.000000e+000 0.000000e+000
      outer loop
         vertex 4.670068e+000 3.000000e+000 6.871141e+000
         vertex 3.778703e+000 3.000000e+000 1.735445e+002
         vertex 4.050000e+000 3.000000e+000 1.733546e+002
      endloop
   endfacet
   facet normal 0.000000e+000 1.000000e+000 0.000000e+000
      outer loop
         vertex 4.670068e+000 3.000000e+000 6.871141e+000
         vertex 4.050000e+000 3.000000e+000 1.733546e+002
         vertex 4.350162e+000 3.000000e+000 1.732146e+002
      endloop
   endfacet
   facet normal 0.000000e+000 1.000000e+000 0.000000e+000
      outer loop
         vertex 3.214584e+000 3.000000e+000 4.350163e+000
         vertex 3.354552e+000 3.000000e+000 4.050002e+000
         vertex 0.000000e+000 3.000000e+000 0.000000e+000
      endloop
   endfacet
   facet normal 0.000000e+000 1.000000e+000 0.000000e+000
      outer loop
         vertex 0.000000e+000 3.000000e+000 0.000000e+000
         vertex 3.354552e+000 3.000000e+000 4.050002e+000
         vertex 3.544515e+000 3.000000e+000 3.778703e+000
      endloop
   endfacet
   facet normal 0.000000e+000 1.000000e+000 0.000000e+000
      outer loop
         vertex 0.000000e+000 3.000000e+000 0.000000e+000
         vertex 3.544515e+000 3.000000e+000 3.778703e+000
         vertex 3.778703e+000 3.000000e+000 3.544517e+000
      endloop
   endfacet
   facet normal 0.000000e+000 1.000000e+000 0.000000e+000
      outer loop
         vertex 6.900000e+000 3.000000e+000 1.750000e+002
         vertex 6.871134e+000 3.000000e+000 1.753299e+002
         vertex 1.000000e+001 3.000000e+000 1.800000e+002
      endloop
   endfacet
   facet normal 0.000000e+000 1.000000e+000 0.000000e+000
      outer loop
         vertex 3.100000e+000 3.000000e+000 1.750000e+002
         vertex 3.128865e+000 3.000000e+000 1.746701e+002
         vertex 0.000000e+000 3.000000e+000 1.800000e+002
      endloop
   endfacet
   facet normal 0.000000e+000 1.000000e+000 0.000000e+000
      outer loop
         vertex 0.000000e+000 3.000000e+000 1.800000e+002
         vertex 3.128865e+000 3.000000e+000 1.746701e+002
         vertex 3.214584e+000 3.000000e+000 1.743502e+002
      endloop
   endfacet
   facet normal 0.000000e+000 1.000000e+000 0.000000e+000
      outer loop
         vertex 0.000000e+000 3.000000e+000 1.800000e+002
         vertex 3.214584e+000 3.000000e+000 1.743502e+002
         vertex 4.670068e+000 3.000000e+000 6.871141e+000
      endloop
   endfacet
   facet normal 0.000000e+000 1.000000e+000 0.000000e+000
      outer loop
         vertex 4.670068e+000 3.000000e+000 6.871141e+000
         vertex 3.214584e+000 3.000000e+000 1.743502e+002
         vertex 3.354552e+000 3.000000e+000 1.740500e+002
      endloop
   endfacet
   facet normal 0.000000e+000 1.000000e+000 0.000000e+000
      outer loop
         vertex 4.670068e+000 3.000000e+000 6.871141e+000
         vertex 3.354552e+000 3.000000e+000 1.740500e+002
         vertex 3.544515e+000 3.000000e+000 1.737787e+002
      endloop
   endfacet
   facet normal 0.000000e+000 1.000000e+000 0.000000e+000
      outer loop
         vertex 6.455484e+000 3.000000e+000 1.737787e+002
         vertex 6.645448e+000 3.000000e+000 1.740500e+002
         vertex 5.329932e+000 3.000000e+000 6.871141e+000
      endloop
   endfacet
   facet normal 0.000000e+000 1.000000e+000 0.000000e+000
      outer loop
         vertex 5.329932e+000 3.000000e+000 6.871141e+000
         vertex 6.645448e+000 3.000000e+000 1.740500e+002
         vertex 6.785416e+000 3.000000e+000 1.743502e+002
      endloop
   endfacet
   facet normal 0.000000e+000 1.000000e+000 0.000000e+000
      outer loop
         vertex 5.329932e+000 3.000000e+000 6.871141e+000
         vertex 6.785416e+000 3.000000e+000 1.743502e+002
         vertex 1.000000e+001 3.000000e+000 1.800000e+002
      endloop
   endfacet
   facet normal 0.000000e+000 1.000000e+000 0.000000e+000
      outer loop
         vertex 1.000000e+001 3.000000e+000 1.800000e+002
         vertex 6.785416e+000 3.000000e+000 1.743502e+002
         vertex 6.871134e+000 3.000000e+000 1.746701e+002
      endloop
   endfacet
   facet normal 0.000000e+000 1.000000e+000 0.000000e+000
      outer loop
         vertex 1.000000e+001 3.000000e+000 1.800000e+002
         vertex 6.871134e+000 3.000000e+000 1.746701e+002
         vertex 6.900000e+000 3.000000e+000 1.750000e+002
      endloop
   endfacet
   facet normal 0.000000e+000 1.000000e+000 0.000000e+000
      outer loop
         vertex 6.871134e+000 3.000000e+000 4.670069e+000
         vertex 6.900000e+000 3.000000e+000 5.000003e+000
         vertex 1.000000e+001 3.000000e+000 0.000000e+000
      endloop
   endfacet
   facet normal 0.000000e+000 1.000000e+000 0.000000e+000
      outer loop
         vertex 1.000000e+001 3.000000e+000 0.000000e+000
         vertex 6.900000e+000 3.000000e+000 5.000003e+000
         vertex 6.871134e+000 3.000000e+000 5.329937e+000
      endloop
   endfacet
   facet normal 0.000000e+000 1.000000e+000 0.000000e+000
      outer loop
         vertex 1.000000e+001 3.000000e+000 0.000000e+000
         vertex 6.871134e+000 3.000000e+000 5.329937e+000
         vertex 1.000000e+001 3.000000e+000 1.800000e+002
      endloop
   endfacet
   facet normal 0.000000e+000 1.000000e+000 0.000000e+000
      outer loop
         vertex 1.000000e+001 3.000000e+000 1.800000e+002
         vertex 6.871134e+000 3.000000e+000 5.329937e+000
         vertex 6.785416e+000 3.000000e+000 5.649842e+000
      endloop
   endfacet
   facet normal 0.000000e+000 1.000000e+000 0.000000e+000
      outer loop
         vertex 1.000000e+001 3.000000e+000 1.800000e+002
         vertex 6.785416e+000 3.000000e+000 5.649842e+000
         vertex 6.645448e+000 3.000000e+000 5.950004e+000
      endloop
   endfacet
   facet normal 0.000000e+000 1.000000e+000 0.000000e+000
      outer loop
         vertex 6.871134e+000 3.000000e+000 1.753299e+002
         vertex 6.785416e+000 3.000000e+000 1.756499e+002
         vertex 1.000000e+001 3.000000e+000 1.800000e+002
      endloop
   endfacet
   facet normal 0.000000e+000 1.000000e+000 0.000000e+000
      outer loop
         vertex 1.000000e+001 3.000000e+000 1.800000e+002
         vertex 6.785416e+000 3.000000e+000 1.756499e+002
         vertex 6.645448e+000 3.000000e+000 1.759500e+002
      endloop
   endfacet
   facet normal 0.000000e+000 1.000000e+000 0.000000e+000
      outer loop
         vertex 1.000000e+001 3.000000e+000 1.800000e+002
         vertex 6.645448e+000 3.000000e+000 1.759500e+002
         vertex 6.455484e+000 3.000000e+000 1.762213e+002
      endloop
   endfacet
   facet normal 0.000000e+000 -1.000000e+000 0.000000e+000
      outer loop
         vertex 0.000000e+000 0.000000e+000 0.000000e+000
         vertex 1.000000e+001 0.000000e+000 0.000000e+000
         vertex 5.000000e+000 0.000000e+000 3.100000e+000
      endloop
   endfacet
   facet normal 0.000000e+000 -1.000000e+000 0.000000e+000
      outer loop
         vertex 6.455484e+000 0.000000e+000 3.778703e+000
         vertex 6.221296e+000 0.000000e+000 3.544517e+000
         vertex 1.000000e+001 0.000000e+000 0.000000e+000
      endloop
   endfacet
   facet normal 0.000000e+000 -1.000000e+000 0.000000e+000
      outer loop
         vertex 1.000000e+001 0.000000e+000 0.000000e+000
         vertex 6.221296e+000 0.000000e+000 3.544517e+000
         vertex 5.950000e+000 0.000000e+000 3.354557e+000
      endloop
   endfacet
   facet normal 0.000000e+000 -1.000000e+000 0.000000e+000
      outer loop
         vertex 5.000000e+000 0.000000e+000 3.100000e+000
         vertex 4.670068e+000 0.000000e+000 3.128871e+000
         vertex 0.000000e+000 0.000000e+000 0.000000e+000
      endloop
   endfacet
   facet normal 0.000000e+000 -1.000000e+000 0.000000e+000
      outer loop
         vertex 0.000000e+000 0.000000e+000 0.000000e+000
         vertex 4.670068e+000 0.000000e+000 3.128871e+000
         vertex 4.350162e+000 0.000000e+000 3.214590e+000
      endloop
   endfacet
   facet normal 0.000000e+000 -1.000000e+000 0.000000e+000
      outer loop
         vertex 0.000000e+000 0.000000e+000 0.000000e+000
         vertex 4.350162e+000 0.000000e+000 3.214590e+000
         vertex 4.050000e+000 0.000000e+000 3.354557e+000
      endloop
   endfacet
   facet normal 0.000000e+000 -1.000000e+000 0.000000e+000
      outer loop
         vertex 5.329932e+000 0.000000e+000 6.871141e+000
         vertex 5.649838e+000 0.000000e+000 6.785422e+000
         vertex 1.000000e+001 0.000000e+000 1.800000e+002
      endloop
   endfacet
   facet normal 0.000000e+000 -1.000000e+000 0.000000e+000
      outer loop
         vertex 1.000000e+001 0.000000e+000 1.800000e+002
         vertex 5.649838e+000 0.000000e+000 6.785422e+000
         vertex 5.950000e+000 0.000000e+000 6.645449e+000
      endloop
   endfacet
   facet normal 0.000000e+000 -1.000000e+000 0.000000e+000
      outer loop
         vertex 1.000000e+001 0.000000e+000 1.800000e+002
         vertex 5.950000e+000 0.000000e+000 6.645449e+000
         vertex 6.221296e+000 0.000000e+000 6.455489e+000
      endloop
   endfacet
   facet normal 0.000000e+000 -1.000000e+000 0.000000e+000
      outer loop
         vertex 5.950000e+000 0.000000e+000 3.354557e+000
         vertex 5.649838e+000 0.000000e+000 3.214590e+000
         vertex 1.000000e+001 0.000000e+000 0.000000e+000
      endloop
   endfacet
   facet normal 0.000000e+000 -1.000000e+000 0.000000e+000
      outer loop
         vertex 1.000000e+001 0.000000e+000 0.000000e+000
         vertex 5.649838e+000 0.000000e+000 3.214590e+000
         vertex 5.329932e+000 0.000000e+000 3.128871e+000
      endloop
   endfacet
   facet normal 0.000000e+000 -1.000000e+000 0.000000e+000
      outer loop
         vertex 1.000000e+001 0.000000e+000 0.000000e+000
         vertex 5.329932e+000 0.000000e+000 3.128871e+000
         vertex 5.000000e+000 0.000000e+000 3.100000e+000
      endloop
   endfacet
   facet normal 0.000000e+000 -1.000000e+000 0.000000e+000
      outer loop
         vertex 4.050000e+000 0.000000e+000 3.354557e+000
         vertex 3.778703e+000 0.000000e+000 3.544517e+000
         vertex 0.000000e+000 0.000000e+000 0.000000e+000
      endloop
   endfacet
   facet normal 0.000000e+000 -1.000000e+000 0.000000e+000
      outer loop
         vertex 0.000000e+000 0.000000e+000 0.000000e+000
         vertex 3.778703e+000 0.000000e+000 3.544517e+000
         vertex 3.544515e+000 0.000000e+000 3.778703e+000
      endloop
   endfacet
   facet normal 0.000000e+000 -1.000000e+000 0.000000e+000
      outer loop
         vertex 0.000000e+000 0.000000e+000 0.000000e+000
         vertex 3.544515e+000 0.000000e+000 3.778703e+000
         vertex 3.354552e+000 0.000000e+000 4.050002e+000
      endloop
   endfacet
   facet normal 0.000000e+000 -1.000000e+000 0.000000e+000
      outer loop
         vertex 3.354552e+000 0.000000e+000 4.050002e+000
         vertex 3.214584e+000 0.000000e+000 4.350163e+000
         vertex 0.000000e+000 0.000000e+000 0.000000e+000
      endloop
   endfacet
   facet normal 0.000000e+000 -1.000000e+000 0.000000e+000
      outer loop
         vertex 0.000000e+000 0.000000e+000 0.000000e+000
         vertex 3.214584e+000 0.000000e+000 4.350163e+000
         vertex 3.128865e+000 0.000000e+000 4.670069e+000
      endloop
   endfacet
   facet normal 0.000000e+000 -1.000000e+000 0.000000e+000
      outer loop
         vertex 0.000000e+000 0.000000e+000 0.000000e+000
         vertex 3.128865e+000 0.000000e+000 4.670069e+000
         vertex 3.100000e+000 0.000000e+000 5.000003e+000
      endloop
   endfacet
   facet normal 0.000000e+000 -1.000000e+000 0.000000e+000
      outer loop
         vertex 4.050000e+000 0.000000e+000 1.733546e+002
         vertex 3.778703e+000 0.000000e+000 1.735445e+002
         vertex 0.000000e+000 0.000000e+000 0.000000e+000
      endloop
   endfacet
   facet normal 0.000000e+000 -1.000000e+000 0.000000e+000
      outer loop
         vertex 4.050000e+000 0.000000e+000 1.733546e+002
         vertex 0.000000e+000 0.000000e+000 0.000000e+000
         vertex 4.350162e+000 0.000000e+000 1.732146e+002
      endloop
   endfacet
   facet normal 0.000000e+000 -1.000000e+000 0.000000e+000
      outer loop
         vertex 3.778703e+000 0.000000e+000 6.455489e+000
         vertex 4.050000e+000 0.000000e+000 6.645449e+000
         vertex 5.000000e+000 0.000000e+000 1.731000e+002
      endloop
   endfacet
   facet normal 0.000000e+000 -1.000000e+000 0.000000e+000
      outer loop
         vertex 6.221296e+000 0.000000e+000 6.455489e+000
         vertex 6.455484e+000 0.000000e+000 6.221302e+000
         vertex 1.000000e+001 0.000000e+000 1.800000e+002
      endloop
   endfacet
   facet normal 0.000000e+000 -1.000000e+000 0.000000e+000
      outer loop
         vertex 1.000000e+001 0.000000e+000 1.800000e+002
         vertex 6.455484e+000 0.000000e+000 6.221302e+000
         vertex 6.645448e+000 0.000000e+000 5.950004e+000
      endloop
   endfacet
   facet normal 0.000000e+000 -1.000000e+000 0.000000e+000
      outer loop
         vertex 1.000000e+001 0.000000e+000 1.800000e+002
         vertex 6.645448e+000 0.000000e+000 5.950004e+000
         vertex 1.000000e+001 0.000000e+000 0.000000e+000
      endloop
   endfacet
   facet normal 0.000000e+000 -1.000000e+000 0.000000e+000
      outer loop
         vertex 1.000000e+001 0.000000e+000 0.000000e+000
         vertex 6.645448e+000 0.000000e+000 5.950004e+000
         vertex 6.785416e+000 0.000000e+000 5.649842e+000
      endloop
   endfacet
   facet normal 0.000000e+000 -1.000000e+000 0.000000e+000
      outer loop
         vertex 4.050000e+000 0.000000e+000 6.645449e+000
         vertex 4.350162e+000 0.000000e+000 6.785422e+000
         vertex 5.000000e+000 0.000000e+000 1.731000e+002
      endloop
   endfacet
   facet normal 0.000000e+000 -1.000000e+000 0.000000e+000
      outer loop
         vertex 5.000000e+000 0.000000e+000 1.731000e+002
         vertex 4.350162e+000 0.000000e+000 6.785422e+000
         vertex 4.670068e+000 0.000000e+000 6.871141e+000
      endloop
   endfacet
   facet normal 0.000000e+000 -1.000000e+000 0.000000e+000
      outer loop
         vertex 5.000000e+000 0.000000e+000 1.731000e+002
         vertex 4.670068e+000 0.000000e+000 6.871141e+000
         vertex 5.329932e+000 0.000000e+000 1.731289e+002
      endloop
   endfacet
   facet normal 0.000000e+000 -1.000000e+000 0.000000e+000
      outer loop
         vertex 5.329932e+000 0.000000e+000 1.731289e+002
         vertex 4.670068e+000 0.000000e+000 6.871141e+000
         vertex 5.000000e+000 0.000000e+000 6.900005e+000
      endloop
   endfacet
   facet normal 0.000000e+000 -1.000000e+000 0.000000e+000
      outer loop
         vertex 5.329932e+000 0.000000e+000 1.731289e+002
         vertex 5.000000e+000 0.000000e+000 6.900005e+000
         vertex 5.329932e+000 0.000000e+000 6.871141e+000
      endloop
   endfacet
   facet normal 0.000000e+000 -1.000000e+000 0.000000e+000
      outer loop
         vertex 6.785416e+000 0.000000e+000 5.649842e+000
         vertex 6.871134e+000 0.000000e+000 5.329937e+000
         vertex 1.000000e+001 0.000000e+000 0.000000e+000
      endloop
   endfacet
   facet normal 0.000000e+000 -1.000000e+000 0.000000e+000
      outer loop
         vertex 1.000000e+001 0.000000e+000 0.000000e+000
         vertex 6.871134e+000 0.000000e+000 5.329937e+000
         vertex 6.900000e+000 0.000000e+000 5.000003e+000
      endloop
   endfacet
   facet normal 0.000000e+000 -1.000000e+000 0.000000e+000
      outer loop
         vertex 1.000000e+001 0.000000e+000 0.000000e+000
         vertex 6.900000e+000 0.000000e+000 5.000003e+000
         vertex 6.871134e+000 0.000000e+000 4.670069e+000
      endloop
   endfacet
   facet normal 0.000000e+000 -1.000000e+000 0.000000e+000
      outer loop
         vertex 6.871134e+000 0.000000e+000 4.670069e+000
         vertex 6.785416e+000 0.000000e+000 4.350163e+000
         vertex 1.000000e+001 0.000000e+000 0.000000e+000
      endloop
   endfacet
   facet normal 0.000000e+000 -1.000000e+000 0.000000e+000
      outer loop
         vertex 1.000000e+001 0.000000e+000 0.000000e+000
         vertex 6.785416e+000 0.000000e+000 4.350163e+000
         vertex 6.645448e+000 0.000000e+000 4.050002e+000
      endloop
   endfacet
   facet normal 0.000000e+000 -1.000000e+000 0.000000e+000
      outer loop
         vertex 1.000000e+001 0.000000e+000 0.000000e+000
         vertex 6.645448e+000 0.000000e+000 4.050002e+000
         vertex 6.455484e+000 0.000000e+000 3.778703e+000
      endloop
   endfacet
   facet normal 0.000000e+000 -1.000000e+000 0.000000e+000
      outer loop
         vertex 3.544515e+000 0.000000e+000 1.762213e+002
         vertex 0.000000e+000 0.000000e+000 1.800000e+002
         vertex 3.354552e+000 0.000000e+000 1.759500e+002
      endloop
   endfacet
   facet normal 0.000000e+000 -1.000000e+000 0.000000e+000
      outer loop
         vertex 3.354552e+000 0.000000e+000 1.759500e+002
         vertex 0.000000e+000 0.000000e+000 1.800000e+002
         vertex 3.214584e+000 0.000000e+000 1.756499e+002
      endloop
   endfacet
   facet normal 0.000000e+000 -1.000000e+000 0.000000e+000
      outer loop
         vertex 4.350162e+000 0.000000e+000 1.732146e+002
         vertex 0.000000e+000 0.000000e+000 0.000000e+000
         vertex 4.670068e+000 0.000000e+000 1.731289e+002
      endloop
   endfacet
   facet normal 0.000000e+000 -1.000000e+000 0.000000e+000
      outer loop
         vertex 4.670068e+000 0.000000e+000 1.731289e+002
         vertex 0.000000e+000 0.000000e+000 0.000000e+000
         vertex 3.100000e+000 0.000000e+000 5.000003e+000
      endloop
   endfacet
   facet normal 0.000000e+000 -1.000000e+000 0.000000e+000
      outer loop
         vertex 4.670068e+000 0.000000e+000 1.731289e+002
         vertex 3.100000e+000 0.000000e+000 5.000003e+000
         vertex 5.000000e+000 0.000000e+000 1.731000e+002
      endloop
   endfacet
   facet normal 0.000000e+000 -1.000000e+000 0.000000e+000
      outer loop
         vertex 5.000000e+000 0.000000e+000 1.731000e+002
         vertex 3.100000e+000 0.000000e+000 5.000003e+000
         vertex 3.128865e+000 0.000000e+000 5.329937e+000
      endloop
   endfacet
   facet normal 0.000000e+000 -1.000000e+000 0.000000e+000
      outer loop
         vertex 5.000000e+000 0.000000e+000 1.731000e+002
         vertex 3.128865e+000 0.000000e+000 5.329937e+000
         vertex 3.214584e+000 0.000000e+000 5.649842e+000
      endloop
   endfacet
   facet normal 0.000000e+000 -1.000000e+000 0.000000e+000
      outer loop
         vertex 3.214584e+000 0.000000e+000 5.649842e+000
         vertex 3.354552e+000 0.000000e+000 5.950004e+000
         vertex 5.000000e+000 0.000000e+000 1.731000e+002
      endloop
   endfacet
   facet normal 0.000000e+000 -1.000000e+000 0.000000e+000
      outer loop
         vertex 5.000000e+000 0.000000e+000 1.731000e+002
         vertex 3.354552e+000 0.000000e+000 5.950004e+000
         vertex 3.544515e+000 0.000000e+000 6.221302e+000
      endloop
   endfacet
   facet normal 0.000000e+000 -1.000000e+000 0.000000e+000
      outer loop
         vertex 5.000000e+000 0.000000e+000 1.731000e+002
         vertex 3.544515e+000 0.000000e+000 6.221302e+000
         vertex 3.778703e+000 0.000000e+000 6.455489e+000
      endloop
   endfacet
   facet normal 0.000000e+000 -1.000000e+000 0.000000e+000
      outer loop
         vertex 5.649838e+000 0.000000e+000 1.767854e+002
         vertex 5.950000e+000 0.000000e+000 1.766455e+002
         vertex 1.000000e+001 0.000000e+000 1.800000e+002
      endloop
   endfacet
   facet normal 0.000000e+000 -1.000000e+000 0.000000e+000
      outer loop
         vertex 6.455484e+000 0.000000e+000 1.737787e+002
         vertex 6.221296e+000 0.000000e+000 1.735445e+002
         vertex 5.329932e+000 0.000000e+000 6.871141e+000
      endloop
   endfacet
   facet normal 0.000000e+000 -1.000000e+000 0.000000e+000
      outer loop
         vertex 3.544515e+000 0.000000e+000 1.762213e+002
         vertex 3.778703e+000 0.000000e+000 1.764555e+002
         vertex 0.000000e+000 0.000000e+000 1.800000e+002
      endloop
   endfacet
   facet normal 0.000000e+000 -1.000000e+000 0.000000e+000
      outer loop
         vertex 0.000000e+000 0.000000e+000 1.800000e+002
         vertex 3.778703e+000 0.000000e+000 1.764555e+002
         vertex 4.050000e+000 0.000000e+000 1.766455e+002
      endloop
   endfacet
   facet normal 0.000000e+000 -1.000000e+000 0.000000e+000
      outer loop
         vertex 0.000000e+000 0.000000e+000 1.800000e+002
         vertex 4.050000e+000 0.000000e+000 1.766455e+002
         vertex 4.350162e+000 0.000000e+000 1.767854e+002
      endloop
   endfacet
   facet normal 0.000000e+000 -1.000000e+000 0.000000e+000
      outer loop
         vertex 4.350162e+000 0.000000e+000 1.767854e+002
         vertex 4.670068e+000 0.000000e+000 1.768711e+002
         vertex 0.000000e+000 0.000000e+000 1.800000e+002
      endloop
   endfacet
   facet normal 0.000000e+000 -1.000000e+000 0.000000e+000
      outer loop
         vertex 0.000000e+000 0.000000e+000 1.800000e+002
         vertex 4.670068e+000 0.000000e+000 1.768711e+002
         vertex 5.000000e+000 0.000000e+000 1.769000e+002
      endloop
   endfacet
   facet normal 0.000000e+000 -1.000000e+000 0.000000e+000
      outer loop
         vertex 0.000000e+000 0.000000e+000 1.800000e+002
         vertex 5.000000e+000 0.000000e+000 1.769000e+002
         vertex 1.000000e+001 0.000000e+000 1.800000e+002
      endloop
   endfacet
   facet normal 0.000000e+000 -1.000000e+000 0.000000e+000
      outer loop
         vertex 1.000000e+001 0.000000e+000 1.800000e+002
         vertex 5.000000e+000 0.000000e+000 1.769000e+002
         vertex 5.329932e+000 0.000000e+000 1.768711e+002
      endloop
   endfacet
   facet normal 0.000000e+000 -1.000000e+000 0.000000e+000
      outer loop
         vertex 1.000000e+001 0.000000e+000 1.800000e+002
         vertex 5.329932e+000 0.000000e+000 1.768711e+002
         vertex 5.649838e+000 0.000000e+000 1.767854e+002
      endloop
   endfacet
   facet normal 0.000000e+000 -1.000000e+000 0.000000e+000
      outer loop
         vertex 5.950000e+000 0.000000e+000 1.766455e+002
         vertex 6.221296e+000 0.000000e+000 1.764555e+002
         vertex 1.000000e+001 0.000000e+000 1.800000e+002
      endloop
   endfacet
   facet normal 0.000000e+000 -1.000000e+000 0.000000e+000
      outer loop
         vertex 1.000000e+001 0.000000e+000 1.800000e+002
         vertex 6.221296e+000 0.000000e+000 1.764555e+002
         vertex 6.455484e+000 0.000000e+000 1.762213e+002
      endloop
   endfacet
   facet normal 0.000000e+000 -1.000000e+000 0.000000e+000
      outer loop
         vertex 1.000000e+001 0.000000e+000 1.800000e+002
         vertex 6.455484e+000 0.000000e+000 1.762213e+002
         vertex 6.645448e+000 0.000000e+000 1.759500e+002
      endloop
   endfacet
   facet normal 0.000000e+000 -1.000000e+000 0.000000e+000
      outer loop
         vertex 6.221296e+000 0.000000e+000 1.735445e+002
         vertex 5.950000e+000 0.000000e+000 1.733546e+002
         vertex 5.329932e+000 0.000000e+000 6.871141e+000
      endloop
   endfacet
   facet normal 0.000000e+000 -1.000000e+000 0.000000e+000
      outer loop
         vertex 5.329932e+000 0.000000e+000 6.871141e+000
         vertex 5.950000e+000 0.000000e+000 1.733546e+002
         vertex 5.649838e+000 0.000000e+000 1.732146e+002
      endloop
   endfacet
   facet normal 0.000000e+000 -1.000000e+000 0.000000e+000
      outer loop
         vertex 5.329932e+000 0.000000e+000 6.871141e+000
         vertex 5.649838e+000 0.000000e+000 1.732146e+002
         vertex 5.329932e+000 0.000000e+000 1.731289e+002
      endloop
   endfacet
   facet normal 0.000000e+000 -1.000000e+000 0.000000e+000
      outer loop
         vertex 3.778703e+000 0.000000e+000 1.735445e+002
         vertex 3.544515e+000 0.000000e+000 1.737787e+002
         vertex 0.000000e+000 0.000000e+000 0.000000e+000
      endloop
   endfacet
   facet normal 0.000000e+000 -1.000000e+000 0.000000e+000
      outer loop
         vertex 0.000000e+000 0.000000e+000 0.000000e+000
         vertex 3.544515e+000 0.000000e+000 1.737787e+002
         vertex 3.354552e+000 0.000000e+000 1.740500e+002
      endloop
   endfacet
   facet normal 0.000000e+000 -1.000000e+000 0.000000e+000
      outer loop
         vertex 0.000000e+000 0.000000e+000 0.000000e+000
         vertex 3.354552e+000 0.000000e+000 1.740500e+002
         vertex 0.000000e+000 0.000000e+000 1.800000e+002
      endloop
   endfacet
   facet normal 0.000000e+000 -1.000000e+000 0.000000e+000
      outer loop
         vertex 0.000000e+000 0.000000e+000 1.800000e+002
         vertex 3.354552e+000 0.000000e+000 1.740500e+002
         vertex 3.214584e+000 0.000000e+000 1.743502e+002
      endloop
   endfacet
   facet normal 0.000000e+000 -1.000000e+000 0.000000e+000
      outer loop
         vertex 0.000000e+000 0.000000e+000 1.800000e+002
         vertex 3.214584e+000 0.000000e+000 1.743502e+002
         vertex 3.128865e+000 0.000000e+000 1.746701e+002
      endloop
   endfacet
   facet normal 0.000000e+000 -1.000000e+000 0.000000e+000
      outer loop
         vertex 3.128865e+000 0.000000e+000 1.746701e+002
         vertex 3.100000e+000 0.000000e+000 1.750000e+002
         vertex 0.000000e+000 0.000000e+000 1.800000e+002
      endloop
   endfacet
   facet normal 0.000000e+000 -1.000000e+000 0.000000e+000
      outer loop
         vertex 0.000000e+000 0.000000e+000 1.800000e+002
         vertex 3.100000e+000 0.000000e+000 1.750000e+002
         vertex 3.128865e+000 0.000000e+000 1.753299e+002
      endloop
   endfacet
   facet normal 0.000000e+000 -1.000000e+000 0.000000e+000
      outer loop
         vertex 0.000000e+000 0.000000e+000 1.800000e+002
         vertex 3.128865e+000 0.000000e+000 1.753299e+002
         vertex 3.214584e+000 0.000000e+000 1.756499e+002
      endloop
   endfacet
   facet normal 0.000000e+000 -1.000000e+000 0.000000e+000
      outer loop
         vertex 6.645448e+000 0.000000e+000 1.759500e+002
         vertex 6.785416e+000 0.000000e+000 1.756499e+002
         vertex 1.000000e+001 0.000000e+000 1.800000e+002
      endloop
   endfacet
   facet normal 0.000000e+000 -1.000000e+000 0.000000e+000
      outer loop
         vertex 1.000000e+001 0.000000e+000 1.800000e+002
         vertex 6.785416e+000 0.000000e+000 1.756499e+002
         vertex 6.871134e+000 0.000000e+000 1.753299e+002
      endloop
   endfacet
   facet normal 0.000000e+000 -1.000000e+000 0.000000e+000
      outer loop
         vertex 1.000000e+001 0.000000e+000 1.800000e+002
         vertex 6.871134e+000 0.000000e+000 1.753299e+002
         vertex 6.900000e+000 0.000000e+000 1.750000e+002
      endloop
   endfacet
   facet normal 0.000000e+000 -1.000000e+000 0.000000e+000
      outer loop
         vertex 6.900000e+000 0.000000e+000 1.750000e+002
         vertex 6.871134e+000 0.000000e+000 1.746701e+002
         vertex 1.000000e+001 0.000000e+000 1.800000e+002
      endloop
   endfacet
   facet normal 0.000000e+000 -1.000000e+000 0.000000e+000
      outer loop
         vertex 1.000000e+001 0.000000e+000 1.800000e+002
         vertex 6.871134e+000 0.000000e+000 1.746701e+002
         vertex 6.785416e+000 0.000000e+000 1.743502e+002
      endloop
   endfacet
   facet normal 0.000000e+000 -1.000000e+000 0.000000e+000
      outer loop
         vertex 1.000000e+001 0.000000e+000 1.800000e+002
         vertex 6.785416e+000 0.000000e+000 1.743502e+002
         vertex 5.329932e+000 0.000000e+000 6.871141e+000
      endloop
   endfacet
   facet normal 0.000000e+000 -1.000000e+000 0.000000e+000
      outer loop
         vertex 5.329932e+000 0.000000e+000 6.871141e+000
         vertex 6.785416e+000 0.000000e+000 1.743502e+002
         vertex 6.645448e+000 0.000000e+000 1.740500e+002
      endloop
   endfacet
   facet normal 0.000000e+000 -1.000000e+000 0.000000e+000
      outer loop
         vertex 5.329932e+000 0.000000e+000 6.871141e+000
         vertex 6.645448e+000 0.000000e+000 1.740500e+002
         vertex 6.455484e+000 0.000000e+000 1.737787e+002
      endloop
   endfacet
   facet normal 1.000000e+000 0.000000e+000 -1.156482e-016
      outer loop
         vertex 1.000000e+001 3.000000e+000 0.000000e+000
         vertex 1.000000e+001 3.000000e+000 1.800000e+002
         vertex 1.000000e+001 0.000000e+000 0.000000e+000
      endloop
   endfacet
   facet normal 1.000000e+000 0.000000e+000 -1.156482e-016
      outer loop
         vertex 1.000000e+001 0.000000e+000 0.000000e+000
         vertex 1.000000e+001 3.000000e+000 1.800000e+002
         vertex 1.000000e+001 0.000000e+000 1.800000e+002
      endloop
   endfacet
   facet normal 0.000000e+000 0.000000e+000 -1.000000e+000
      outer loop
         vertex 0.000000e+000 3.000000e+000 0.000000e+000
         vertex 1.000000e+001 3.000000e+000 0.000000e+000
         vertex 0.000000e+000 0.000000e+000 0.000000e+000
      endloop
   endfacet
   facet normal 0.000000e+000 0.000000e+000 -1.000000e+000
      outer loop
         vertex 0.000000e+000 0.000000e+000 0.000000e+000
         vertex 1.000000e+001 3.000000e+000 0.000000e+000
         vertex 1.000000e+001 0.000000e+000 0.000000e+000
      endloop
   endfacet
   facet normal -1.000000e+000 0.000000e+000 1.349229e-016
      outer loop
         vertex 0.000000e+000 3.000000e+000 1.800000e+002
         vertex 0.000000e+000 3.000000e+000 0.000000e+000
         vertex 0.000000e+000 0.000000e+000 1.800000e+002
      endloop
   endfacet
   facet normal -1.000000e+000 0.000000e+000 1.349229e-016
      outer loop
         vertex 0.000000e+000 0.000000e+000 1.800000e+002
         vertex 0.000000e+000 3.000000e+000 0.000000e+000
         vertex 0.000000e+000 0.000000e+000 0.000000e+000
      endloop
   endfacet
   facet normal 0.000000e+000 0.000000e+000 1.000000e+000
      outer loop
         vertex 1.000000e+001 3.000000e+000 1.800000e+002
         vertex 0.000000e+000 3.000000e+000 1.800000e+002
         vertex 1.000000e+001 0.000000e+000 1.800000e+002
      endloop
   endfacet
   facet normal 0.000000e+000 0.000000e+000 1.000000e+000
      outer loop
         vertex 1.000000e+001 0.000000e+000 1.800000e+002
         vertex 0.000000e+000 3.000000e+000 1.800000e+002
         vertex 0.000000e+000 0.000000e+000 1.800000e+002
      endloop
   endfacet
   facet normal 5.807913e-002 0.000000e+000 9.983119e-001
      outer loop
         vertex 4.670068e+000 3.000000e+000 3.128871e+000
         vertex 5.000000e+000 0.000000e+000 3.100000e+000
         vertex 5.000000e+000 3.000000e+000 3.100000e+000
      endloop
   endfacet
   facet normal -5.807913e-002 0.000000e+000 9.983119e-001
      outer loop
         vertex 5.000000e+000 3.000000e+000 3.100000e+000
         vertex 5.000000e+000 0.000000e+000 3.100000e+000
         vertex 5.329932e+000 0.000000e+000 3.128871e+000
      endloop
   endfacet
   facet normal -1.161583e-001 0.000000e+000 9.932307e-001
      outer loop
         vertex 5.000000e+000 3.000000e+000 3.100000e+000
         vertex 5.329932e+000 0.000000e+000 3.128871e+000
         vertex 5.329932e+000 3.000000e+000 3.128871e+000
      endloop
   endfacet
   facet normal -2.305519e-001 0.000000e+000 9.730600e-001
      outer loop
         vertex 5.329932e+000 3.000000e+000 3.128871e+000
         vertex 5.329932e+000 0.000000e+000 3.128871e+000
         vertex 5.649838e+000 0.000000e+000 3.214590e+000
      endloop
   endfacet
   facet normal -2.868663e-001 0.000000e+000 9.579706e-001
      outer loop
         vertex 5.329932e+000 3.000000e+000 3.128871e+000
         vertex 5.649838e+000 0.000000e+000 3.214590e+000
         vertex 5.649838e+000 3.000000e+000 3.214590e+000
      endloop
   endfacet
   facet normal -3.960194e-001 0.000000e+000 9.182422e-001
      outer loop
         vertex 5.649838e+000 3.000000e+000 3.214590e+000
         vertex 5.649838e+000 0.000000e+000 3.214590e+000
         vertex 5.950000e+000 0.000000e+000 3.354557e+000
      endloop
   endfacet
   facet normal -4.488580e-001 0.000000e+000 8.936031e-001
      outer loop
         vertex 5.649838e+000 3.000000e+000 3.214590e+000
         vertex 5.950000e+000 0.000000e+000 3.354557e+000
         vertex 5.950000e+000 3.000000e+000 3.354557e+000
      endloop
   endfacet
   facet normal -5.494540e-001 0.000000e+000 8.355240e-001
      outer loop
         vertex 5.950000e+000 3.000000e+000 3.354557e+000
         vertex 5.950000e+000 0.000000e+000 3.354557e+000
         vertex 6.221296e+000 0.000000e+000 3.544517e+000
      endloop
   endfacet
   facet normal -5.972114e-001 0.000000e+000 8.020838e-001
      outer loop
         vertex 5.950000e+000 3.000000e+000 3.354557e+000
         vertex 6.221296e+000 0.000000e+000 3.544517e+000
         vertex 6.221296e+000 3.000000e+000 3.544517e+000
      endloop
   endfacet
   facet normal -6.861938e-001 0.000000e+000 7.274188e-001
      outer loop
         vertex 6.221296e+000 3.000000e+000 3.544517e+000
         vertex 6.221296e+000 0.000000e+000 3.544517e+000
         vertex 6.455484e+000 0.000000e+000 3.778703e+000
      endloop
   endfacet
   facet normal -7.274188e-001 0.000000e+000 6.861938e-001
      outer loop
         vertex 6.221296e+000 3.000000e+000 3.544517e+000
         vertex 6.455484e+000 0.000000e+000 3.778703e+000
         vertex 6.455484e+000 3.000000e+000 3.778703e+000
      endloop
   endfacet
   facet normal -8.020838e-001 0.000000e+000 5.972114e-001
      outer loop
         vertex 6.455484e+000 3.000000e+000 3.778703e+000
         vertex 6.455484e+000 0.000000e+000 3.778703e+000
         vertex 6.645448e+000 0.000000e+000 4.050002e+000
      endloop
   endfacet
   facet normal -8.355240e-001 0.000000e+000 5.494540e-001
      outer loop
         vertex 6.455484e+000 3.000000e+000 3.778703e+000
         vertex 6.645448e+000 0.000000e+000 4.050002e+000
         vertex 6.645448e+000 3.000000e+000 4.050002e+000
      endloop
   endfacet
   facet normal -8.936031e-001 0.000000e+000 4.488580e-001
      outer loop
         vertex 6.645448e+000 3.000000e+000 4.050002e+000
         vertex 6.645448e+000 0.000000e+000 4.050002e+000
         vertex 6.785416e+000 0.000000e+000 4.350163e+000
      endloop
   endfacet
   facet normal -9.182422e-001 0.000000e+000 3.960194e-001
      outer loop
         vertex 6.645448e+000 3.000000e+000 4.050002e+000
         vertex 6.785416e+000 0.000000e+000 4.350163e+000
         vertex 6.785416e+000 3.000000e+000 4.350163e+000
      endloop
   endfacet
   facet normal -9.579706e-001 0.000000e+000 2.868663e-001
      outer loop
         vertex 6.785416e+000 3.000000e+000 4.350163e+000
         vertex 6.785416e+000 0.000000e+000 4.350163e+000
         vertex 6.871134e+000 0.000000e+000 4.670069e+000
      endloop
   endfacet
   facet normal -9.730600e-001 0.000000e+000 2.305519e-001
      outer loop
         vertex 6.785416e+000 3.000000e+000 4.350163e+000
         vertex 6.871134e+000 0.000000e+000 4.670069e+000
         vertex 6.871134e+000 3.000000e+000 4.670069e+000
      endloop
   endfacet
   facet normal -9.932307e-001 0.000000e+000 1.161583e-001
      outer loop
         vertex 6.871134e+000 3.000000e+000 4.670069e+000
         vertex 6.871134e+000 0.000000e+000 4.670069e+000
         vertex 6.900000e+000 0.000000e+000 5.000003e+000
      endloop
   endfacet
   facet normal -9.983119e-001 0.000000e+000 5.807913e-002
      outer loop
         vertex 6.871134e+000 3.000000e+000 4.670069e+000
         vertex 6.900000e+000 0.000000e+000 5.000003e+000
         vertex 6.900000e+000 3.000000e+000 5.000003e+000
      endloop
   endfacet
   facet normal -9.983119e-001 0.000000e+000 -5.807913e-002
      outer loop
         vertex 6.900000e+000 3.000000e+000 5.000003e+000
         vertex 6.900000e+000 0.000000e+000 5.000003e+000
         vertex 6.871134e+000 0.000000e+000 5.329937e+000
      endloop
   endfacet
   facet normal -9.932307e-001 0.000000e+000 -1.161583e-001
      outer loop
         vertex 6.900000e+000 3.000000e+000 5.000003e+000
         vertex 6.871134e+000 0.000000e+000 5.329937e+000
         vertex 6.871134e+000 3.000000e+000 5.329937e+000
      endloop
   endfacet
   facet normal -9.730600e-001 0.000000e+000 -2.305519e-001
      outer loop
         vertex 6.871134e+000 3.000000e+000 5.329937e+000
         vertex 6.871134e+000 0.000000e+000 5.329937e+000
         vertex 6.785416e+000 0.000000e+000 5.649842e+000
      endloop
   endfacet
   facet normal -9.579706e-001 0.000000e+000 -2.868663e-001
      outer loop
         vertex 6.871134e+000 3.000000e+000 5.329937e+000
         vertex 6.785416e+000 0.000000e+000 5.649842e+000
         vertex 6.785416e+000 3.000000e+000 5.649842e+000
      endloop
   endfacet
   facet normal -9.182422e-001 0.000000e+000 -3.960194e-001
      outer loop
         vertex 6.785416e+000 3.000000e+000 5.649842e+000
         vertex 6.785416e+000 0.000000e+000 5.649842e+000
         vertex 6.645448e+000 0.000000e+000 5.950004e+000
      endloop
   endfacet
   facet normal -8.936031e-001 0.000000e+000 -4.488580e-001
      outer loop
         vertex 6.785416e+000 3.000000e+000 5.649842e+000
         vertex 6.645448e+000 0.000000e+000 5.950004e+000
         vertex 6.645448e+000 3.000000e+000 5.950004e+000
      endloop
   endfacet
   facet normal -8.355240e-001 0.000000e+000 -5.494540e-001
      outer loop
         vertex 6.645448e+000 3.000000e+000 5.950004e+000
         vertex 6.645448e+000 0.000000e+000 5.950004e+000
         vertex 6.455484e+000 0.000000e+000 6.221302e+000
      endloop
   endfacet
   facet normal -8.020838e-001 0.000000e+000 -5.972114e-001
      outer loop
         vertex 6.645448e+000 3.000000e+000 5.950004e+000
         vertex 6.455484e+000 0.000000e+000 6.221302e+000
         vertex 6.455484e+000 3.000000e+000 6.221302e+000
      endloop
   endfacet
   facet normal -7.274188e-001 0.000000e+000 -6.861938e-001
      outer loop
         vertex 6.455484e+000 3.000000e+000 6.221302e+000
         vertex 6.455484e+000 0.000000e+000 6.221302e+000
         vertex 6.221296e+000 0.000000e+000 6.455489e+000
      endloop
   endfacet
   facet normal -6.861938e-001 0.000000e+000 -7.274188e-001
      outer loop
         vertex 6.455484e+000 3.000000e+000 6.221302e+000
         vertex 6.221296e+000 0.000000e+000 6.455489e+000
         vertex 6.221296e+000 3.000000e+000 6.455489e+000
      endloop
   endfacet
   facet normal -5.972114e-001 0.000000e+000 -8.020838e-001
      outer loop
         vertex 6.221296e+000 3.000000e+000 6.455489e+000
         vertex 6.221296e+000 0.000000e+000 6.455489e+000
         vertex 5.950000e+000 0.000000e+000 6.645449e+000
      endloop
   endfacet
   facet normal -5.494540e-001 0.000000e+000 -8.355240e-001
      outer loop
         vertex 6.221296e+000 3.000000e+000 6.455489e+000
         vertex 5.950000e+000 0.000000e+000 6.645449e+000
         vertex 5.950000e+000 3.000000e+000 6.645449e+000
      endloop
   endfacet
   facet normal -4.488580e-001 0.000000e+000 -8.936031e-001
      outer loop
         vertex 5.950000e+000 3.000000e+000 6.645449e+000
         vertex 5.950000e+000 0.000000e+000 6.645449e+000
         vertex 5.649838e+000 0.000000e+000 6.785422e+000
      endloop
   endfacet
   facet normal -3.960194e-001 0.000000e+000 -9.182422e-001
      outer loop
         vertex 5.950000e+000 3.000000e+000 6.645449e+000
         vertex 5.649838e+000 0.000000e+000 6.785422e+000
         vertex 5.649838e+000 3.000000e+000 6.785422e+000
      endloop
   endfacet
   facet normal -2.868663e-001 0.000000e+000 -9.579706e-001
      outer loop
         vertex 5.649838e+000 3.000000e+000 6.785422e+000
         vertex 5.649838e+000 0.000000e+000 6.785422e+000
         vertex 5.329932e+000 0.000000e+000 6.871141e+000
      endloop
   endfacet
   facet normal -2.305519e-001 0.000000e+000 -9.730600e-001
      outer loop
         vertex 5.649838e+000 3.000000e+000 6.785422e+000
         vertex 5.329932e+000 0.000000e+000 6.871141e+000
         vertex 5.329932e+000 3.000000e+000 6.871141e+000
      endloop
   endfacet
   facet normal -1.161583e-001 0.000000e+000 -9.932307e-001
      outer loop
         vertex 5.329932e+000 3.000000e+000 6.871141e+000
         vertex 5.329932e+000 0.000000e+000 6.871141e+000
         vertex 5.000000e+000 0.000000e+000 6.900005e+000
      endloop
   endfacet
   facet normal -5.807913e-002 0.000000e+000 -9.983119e-001
      outer loop
         vertex 5.329932e+000 3.000000e+000 6.871141e+000
         vertex 5.000000e+000 0.000000e+000 6.900005e+000
         vertex 5.000000e+000 3.000000e+000 6.900005e+000
      endloop
   endfacet
   facet normal 5.807913e-002 0.000000e+000 -9.983119e-001
      outer loop
         vertex 5.000000e+000 3.000000e+000 6.900005e+000
         vertex 5.000000e+000 0.000000e+000 6.900005e+000
         vertex 4.670068e+000 0.000000e+000 6.871141e+000
      endloop
   endfacet
   facet normal 1.161583e-001 0.000000e+000 -9.932307e-001
      outer loop
         vertex 5.000000e+000 3.000000e+000 6.900005e+000
         vertex 4.670068e+000 0.000000e+000 6.871141e+000
         vertex 4.670068e+000 3.000000e+000 6.871141e+000
      endloop
   endfacet
   facet normal 2.305519e-001 0.000000e+000 -9.730600e-001
      outer loop
         vertex 4.670068e+000 3.000000e+000 6.871141e+000
         vertex 4.670068e+000 0.000000e+000 6.871141e+000
         vertex 4.350162e+000 0.000000e+000 6.785422e+000
      endloop
   endfacet
   facet normal 2.868663e-001 0.000000e+000 -9.579706e-001
      outer loop
         vertex 4.670068e+000 3.000000e+000 6.871141e+000
         vertex 4.350162e+000 0.000000e+000 6.785422e+000
         vertex 4.350162e+000 3.000000e+000 6.785422e+000
      endloop
   endfacet
   facet normal 3.960194e-001 0.000000e+000 -9.182422e-001
      outer loop
         vertex 4.350162e+000 3.000000e+000 6.785422e+000
         vertex 4.350162e+000 0.000000e+000 6.785422e+000
         vertex 4.050000e+000 0.000000e+000 6.645449e+000
      endloop
   endfacet
   facet normal 4.488580e-001 0.000000e+000 -8.936031e-001
      outer loop
         vertex 4.350162e+000 3.000000e+000 6.785422e+000
         vertex 4.050000e+000 0.000000e+000 6.645449e+000
         vertex 4.050000e+000 3.000000e+000 6.645449e+000
      endloop
   endfacet
   facet normal 5.494540e-001 0.000000e+000 -8.355240e-001
      outer loop
         vertex 4.050000e+000 3.000000e+000 6.645449e+000
         vertex 4.050000e+000 0.000000e+000 6.645449e+000
         vertex 3.778703e+000 0.000000e+000 6.455489e+000
      endloop
   endfacet
   facet normal 5.972114e-001 0.000000e+000 -8.020838e-001
      outer loop
         vertex 4.050000e+000 3.000000e+000 6.645449e+000
         vertex 3.778703e+000 0.000000e+000 6.455489e+000
         vertex 3.778703e+000 3.000000e+000 6.455489e+000
      endloop
   endfacet
   facet normal 6.861938e-001 0.000000e+000 -7.274188e-001
      outer loop
         vertex 3.778703e+000 3.000000e+000 6.455489e+000
         vertex 3.778703e+000 0.000000e+000 6.455489e+000
         vertex 3.544515e+000 0.000000e+000 6.221302e+000
      endloop
   endfacet
   facet normal 7.274188e-001 0.000000e+000 -6.861938e-001
      outer loop
         vertex 3.778703e+000 3.000000e+000 6.455489e+000
         vertex 3.544515e+000 0.000000e+000 6.221302e+000
         vertex 3.544515e+000 3.000000e+000 6.221302e+000
      endloop
   endfacet
   facet normal 8.020838e-001 0.000000e+000 -5.972114e-001
      outer loop
         vertex 3.544515e+000 3.000000e+000 6.221302e+000
         vertex 3.544515e+000 0.000000e+000 6.221302e+000
         vertex 3.354552e+000 0.000000e+000 5.950004e+000
      endloop
   endfacet
   facet normal 8.355240e-001 0.000000e+000 -5.494540e-001
      outer loop
         vertex 3.544515e+000 3.000000e+000 6.221302e+000
         vertex 3.354552e+000 0.000000e+000 5.950004e+000
         vertex 3.354552e+000 3.000000e+000 5.950004e+000
      endloop
   endfacet
   facet normal 8.936031e-001 0.000000e+000 -4.488580e-001
      outer loop
         vertex 3.354552e+000 3.000000e+000 5.950004e+000
         vertex 3.354552e+000 0.000000e+000 5.950004e+000
         vertex 3.214584e+000 0.000000e+000 5.649842e+000
      endloop
   endfacet
   facet normal 9.182422e-001 0.000000e+000 -3.960194e-001
      outer loop
         vertex 3.354552e+000 3.000000e+000 5.950004e+000
         vertex 3.214584e+000 0.000000e+000 5.649842e+000
         vertex 3.214584e+000 3.000000e+000 5.649842e+000
      endloop
   endfacet
   facet normal 9.579706e-001 0.000000e+000 -2.868663e-001
      outer loop
         vertex 3.214584e+000 3.000000e+000 5.649842e+000
         vertex 3.214584e+000 0.000000e+000 5.649842e+000
         vertex 3.128865e+000 0.000000e+000 5.329937e+000
      endloop
   endfacet
   facet normal 9.730600e-001 0.000000e+000 -2.305519e-001
      outer loop
         vertex 3.214584e+000 3.000000e+000 5.649842e+000
         vertex 3.128865e+000 0.000000e+000 5.329937e+000
         vertex 3.128865e+000 3.000000e+000 5.329937e+000
      endloop
   endfacet
   facet normal 9.932307e-001 0.000000e+000 -1.161583e-001
      outer loop
         vertex 3.128865e+000 3.000000e+000 5.329937e+000
         vertex 3.128865e+000 0.000000e+000 5.329937e+000
         vertex 3.100000e+000 0.000000e+000 5.000003e+000
      endloop
   endfacet
   facet normal 9.983119e-001 0.000000e+000 -5.807913e-002
      outer loop
         vertex 3.128865e+000 3.000000e+000 5.329937e+000
         vertex 3.100000e+000 0.000000e+000 5.000003e+000
         vertex 3.100000e+000 3.000000e+000 5.000003e+000
      endloop
   endfacet
   facet normal 9.983119e-001 0.000000e+000 5.807913e-002
      outer loop
         vertex 3.100000e+000 3.000000e+000 5.000003e+000
         vertex 3.100000e+000 0.000000e+000 5.000003e+000
         vertex 3.128865e+000 0.000000e+000 4.670069e+000
      endloop
   endfacet
   facet normal 9.932307e-001 0.000000e+000 1.161583e-001
      outer loop
         vertex 3.100000e+000 3.000000e+000 5.000003e+000
         vertex 3.128865e+000 0.000000e+000 4.670069e+000
         vertex 3.128865e+000 3.000000e+000 4.670069e+000
      endloop
   endfacet
   facet normal 9.730600e-001 0.000000e+000 2.305519e-001
      outer loop
         vertex 3.128865e+000 3.000000e+000 4.670069e+000
         vertex 3.128865e+000 0.000000e+000 4.670069e+000
         vertex 3.214584e+000 0.000000e+000 4.350163e+000
      endloop
   endfacet
   facet normal 9.579706e-001 0.000000e+000 2.868663e-001
      outer loop
         vertex 3.128865e+000 3.000000e+000 4.670069e+000
         vertex 3.214584e+000 0.000000e+000 4.350163e+000
         vertex 3.214584e+000 3.000000e+000 4.350163e+000
      endloop
   endfacet
   facet normal 9.182422e-001 0.000000e+000 3.960194e-001
      outer loop
         vertex 3.214584e+000 3.000000e+000 4.350163e+000
         vertex 3.214584e+000 0.000000e+000 4.350163e+000
         vertex 3.354552e+000 0.000000e+000 4.050002e+000
      endloop
   endfacet
   facet normal 8.936031e-001 0.000000e+000 4.488580e-001
      outer loop
         vertex 3.214584e+000 3.000000e+000 4.350163e+000
         vertex 3.354552e+000 0.000000e+000 4.050002e+000
         vertex 3.354552e+000 3.000000e+000 4.050002e+000
      endloop
   endfacet
   facet normal 8.355240e-001 0.000000e+000 5.494540e-001
      outer loop
         vertex 3.354552e+000 3.000000e+000 4.050002e+000
         vertex 3.354552e+000 0.000000e+000 4.050002e+000
         vertex 3.544515e+000 0.000000e+000 3.778703e+000
      endloop
   endfacet
   facet normal 8.020838e-001 0.000000e+000 5.972114e-001
      outer loop
         vertex 3.354552e+000 3.000000e+000 4.050002e+000
         vertex 3.544515e+000 0.000000e+000 3.778703e+000
         vertex 3.544515e+000 3.000000e+000 3.778703e+000
      endloop
   endfacet
   facet normal 7.274188e-001 0.000000e+000 6.861938e-001
      outer loop
         vertex 3.544515e+000 3.000000e+000 3.778703e+000
         vertex 3.544515e+000 0.000000e+000 3.778703e+000
         vertex 3.778703e+000 0.000000e+000 3.544517e+000
      endloop
   endfacet
   facet normal 6.861938e-001 0.000000e+000 7.274188e-001
      outer loop
         vertex 3.544515e+000 3.000000e+000 3.778703e+000
         vertex 3.778703e+000 0.000000e+000 3.544517e+000
         vertex 3.778703e+000 3.000000e+000 3.544517e+000
      endloop
   endfacet
   facet normal 5.972114e-001 0.000000e+000 8.020838e-001
      outer loop
         vertex 3.778703e+000 3.000000e+000 3.544517e+000
         vertex 3.778703e+000 0.000000e+000 3.544517e+000
         vertex 4.050000e+000 0.000000e+000 3.354557e+000
      endloop
   endfacet
   facet normal 5.494540e-001 0.000000e+000 8.355240e-001
      outer loop
         vertex 3.778703e+000 3.000000e+000 3.544517e+000
         vertex 4.050000e+000 0.000000e+000 3.354557e+000
         vertex 4.050000e+000 3.000000e+000 3.354557e+000
      endloop
   endfacet
   facet normal 4.488580e-001 0.000000e+000 8.936031e-001
      outer loop
         vertex 4.050000e+000 3.000000e+000 3.354557e+000
         vertex 4.050000e+000 0.000000e+000 3.354557e+000
         vertex 4.350162e+000 0.000000e+000 3.214590e+000
      endloop
   endfacet
   facet normal 3.960194e-001 0.000000e+000 9.182422e-001
      outer loop
         vertex 4.050000e+000 3.000000e+000 3.354557e+000
         vertex 4.350162e+000 0.000000e+000 3.214590e+000
         vertex 4.350162e+000 3.000000e+000 3.214590e+000
      endloop
   endfacet
   facet normal 2.868663e-001 0.000000e+000 9.579706e-001
      outer loop
         vertex 4.350162e+000 3.000000e+000 3.214590e+000
         vertex 4.350162e+000 0.000000e+000 3.214590e+000
         vertex 4.670068e+000 0.000000e+000 3.128871e+000
      endloop
   endfacet
   facet normal 2.305519e-001 0.000000e+000 9.730600e-001
      outer loop
         vertex 4.350162e+000 3.000000e+000 3.214590e+000
         vertex 4.670068e+000 0.000000e+000 3.128871e+000
         vertex 4.670068e+000 3.000000e+000 3.128871e+000
      endloop
   endfacet
   facet normal 1.161583e-001 0.000000e+000 9.932307e-001
      outer loop
         vertex 4.670068e+000 3.000000e+000 3.128871e+000
         vertex 4.670068e+000 0.000000e+000 3.128871e+000
         vertex 5.000000e+000 0.000000e+000 3.100000e+000
      endloop
   endfacet
   facet normal 5.807913e-002 0.000000e+000 9.983119e-001
      outer loop
         vertex 4.670068e+000 3.000000e+000 1.731289e+002
         vertex 5.000000e+000 0.000000e+000 1.731000e+002
         vertex 5.000000e+000 3.000000e+000 1.731000e+002
      endloop
   endfacet
   facet normal -5.807913e-002 0.000000e+000 9.983119e-001
      outer loop
         vertex 5.000000e+000 3.000000e+000 1.731000e+002
         vertex 5.000000e+000 0.000000e+000 1.731000e+002
         vertex 5.329932e+000 0.000000e+000 1.731289e+002
      endloop
   endfacet
   facet normal -1.161583e-001 0.000000e+000 9.932307e-001
      outer loop
         vertex 5.000000e+000 3.000000e+000 1.731000e+002
         vertex 5.329932e+000 0.000000e+000 1.731289e+002
         vertex 5.329932e+000 3.000000e+000 1.731289e+002
      endloop
   endfacet
   facet normal -2.305519e-001 0.000000e+000 9.730600e-001
      outer loop
         vertex 5.329932e+000 3.000000e+000 1.731289e+002
         vertex 5.329932e+000 0.000000e+000 1.731289e+002
         vertex 5.649838e+000 0.000000e+000 1.732146e+002
      endloop
   endfacet
   facet normal -2.868663e-001 0.000000e+000 9.579706e-001
      outer loop
         vertex 5.329932e+000 3.000000e+000 1.731289e+002
         vertex 5.649838e+000 0.000000e+000 1.732146e+002
         vertex 5.649838e+000 3.000000e+000 1.732146e+002
      endloop
   endfacet
   facet normal -3.960194e-001 0.000000e+000 9.182422e-001
      outer loop
         vertex 5.649838e+000 3.000000e+000 1.732146e+002
         vertex 5.649838e+000 0.000000e+000 1.732146e+002
         vertex 5.950000e+000 0.000000e+000 1.733546e+002
      endloop
   endfacet
   facet normal -4.488580e-001 0.000000e+000 8.936031e-001
      outer loop
         vertex 5.649838e+000 3.000000e+000 1.732146e+002
         vertex 5.950000e+000 0.000000e+000 1.733546e+002
         vertex 5.950000e+000 3.000000e+000 1.733546e+002
      endloop
   endfacet
   facet normal -5.494540e-001 0.000000e+000 8.355240e-001
      outer loop
         vertex 5.950000e+000 3.000000e+000 1.733546e+002
         vertex 5.950000e+000 0.000000e+000 1.733546e+002
         vertex 6.221296e+000 0.000000e+000 1.735445e+002
      endloop
   endfacet
   facet normal -5.972114e-001 0.000000e+000 8.020838e-001
      outer loop
         vertex 5.950000e+000 3.000000e+000 1.733546e+002
         vertex 6.221296e+000 0.000000e+000 1.735445e+002
         vertex 6.221296e+000 3.000000e+000 1.735445e+002
      endloop
   endfacet
   facet normal -6.861938e-001 0.000000e+000 7.274188e-001
      outer loop
         vertex 6.221296e+000 3.000000e+000 1.735445e+002
         vertex 6.221296e+000 0.000000e+000 1.735445e+002
         vertex 6.455484e+000 0.000000e+000 1.737787e+002
      endloop
   endfacet
   facet normal -7.274188e-001 0.000000e+000 6.861938e-001
      outer loop
         vertex 6.221296e+000 3.000000e+000 1.735445e+002
         vertex 6.455484e+000 0.000000e+000 1.737787e+002
         vertex 6.455484e+000 3.000000e+000 1.737787e+002
      endloop
   endfacet
   facet normal -8.020838e-001 0.000000e+000 5.972114e-001
      outer loop
         vertex 6.455484e+000 3.000000e+000 1.737787e+002
         vertex 6.455484e+000 0.000000e+000 1.737787e+002
         vertex 6.645448e+000 0.000000e+000 1.740500e+002
      endloop
   endfacet
   facet normal -8.355240e-001 0.000000e+000 5.494540e-001
      outer loop
         vertex 6.455484e+000 3.000000e+000 1.737787e+002
         vertex 6.645448e+000 0.000000e+000 1.740500e+002
         vertex 6.645448e+000 3.000000e+000 1.740500e+002
      endloop
   endfacet
   facet normal -8.936031e-001 0.000000e+000 4.488580e-001
      outer loop
         vertex 6.645448e+000 3.000000e+000 1.740500e+002
         vertex 6.645448e+000 0.000000e+000 1.740500e+002
         vertex 6.785416e+000 0.000000e+000 1.743502e+002
      endloop
   endfacet
   facet normal -9.182422e-001 0.000000e+000 3.960194e-001
      outer loop
         vertex 6.645448e+000 3.000000e+000 1.740500e+002
         vertex 6.785416e+000 0.000000e+000 1.743502e+002
         vertex 6.785416e+000 3.000000e+000 1.743502e+002
      endloop
   endfacet
   facet normal -9.579706e-001 0.000000e+000 2.868663e-001
      outer loop
         vertex 6.785416e+000 3.000000e+000 1.743502e+002
         vertex 6.785416e+000 0.000000e+000 1.743502e+002
         vertex 6.871134e+000 0.000000e+000 1.746701e+002
      endloop
   endfacet
   facet normal -9.730600e-001 0.000000e+000 2.305519e-001
      outer loop
         vertex 6.785416e+000 3.000000e+000 1.743502e+002
         vertex 6.871134e+000 0.000000e+000 1.746701e+002
         vertex 6.871134e+000 3.000000e+000 1.746701e+002
      endloop
   endfacet
   facet normal -9.932307e-001 0.000000e+000 1.161583e-001
      outer loop
         vertex 6.871134e+000 3.000000e+000 1.746701e+002
         vertex 6.871134e+000 0.000000e+000 1.746701e+002
         vertex 6.900000e+000 0.000000e+000 1.750000e+002
      endloop
   endfacet
   facet normal -9.983119e-001 0.000000e+000 5.807913e-002
      outer loop
         vertex 6.871134e+000 3.000000e+000 1.746701e+002
         vertex 6.900000e+000 0.000000e+000 1.750000e+002
         vertex 6.900000e+000 3.000000e+000 1.750000e+002
      endloop
   endfacet
   facet normal -9.983119e-001 0.000000e+000 -5.807913e-002
      outer loop
         vertex 6.900000e+000 3.000000e+000 1.750000e+002
         vertex 6.900000e+000 0.000000e+000 1.750000e+002
         vertex 6.871134e+000 0.000000e+000 1.753299e+002
      endloop
   endfacet
   facet normal -9.932307e-001 0.000000e+000 -1.161583e-001
      outer loop
         vertex 6.900000e+000 3.000000e+000 1.750000e+002
         vertex 6.871134e+000 0.000000e+000 1.753299e+002
         vertex 6.871134e+000 3.000000e+000 1.753299e+002
      endloop
   endfacet
   facet normal -9.730600e-001 0.000000e+000 -2.305519e-001
      outer loop
         vertex 6.871134e+000 3.000000e+000 1.753299e+002
         vertex 6.871134e+000 0.000000e+000 1.753299e+002
         vertex 6.785416e+000 0.000000e+000 1.756499e+002
      endloop
   endfacet
   facet normal -9.579706e-001 0.000000e+000 -2.868663e-001
      outer loop
         vertex 6.871134e+000 3.000000e+000 1.753299e+002
         vertex 6.785416e+000 0.000000e+000 1.756499e+002
         vertex 6.785416e+000 3.000000e+000 1.756499e+002
      endloop
   endfacet
   facet normal -9.182422e-001 0.000000e+000 -3.960194e-001
      outer loop
         vertex 6.785416e+000 3.000000e+000 1.756499e+002
         vertex 6.785416e+000 0.000000e+000 1.756499e+002
         vertex 6.645448e+000 0.000000e+000 1.759500e+002
      endloop
   endfacet
   facet normal -8.936031e-001 0.000000e+000 -4.488580e-001
      outer loop
         vertex 6.785416e+000 3.000000e+000 1.756499e+002
         vertex 6.645448e+000 0.000000e+000 1.759500e+002
         vertex 6.645448e+000 3.000000e+000 1.759500e+002
      endloop
   endfacet
   facet normal -8.355240e-001 0.000000e+000 -5.494540e-001
      outer loop
         vertex 6.645448e+000 3.000000e+000 1.759500e+002
         vertex 6.645448e+000 0.000000e+000 1.759500e+002
         vertex 6.455484e+000 0.000000e+000 1.762213e+002
      endloop
   endfacet
   facet normal -8.020838e-001 0.000000e+000 -5.972114e-001
      outer loop
         vertex 6.645448e+000 3.000000e+000 1.759500e+002
         vertex 6.455484e+000 0.000000e+000 1.762213e+002
         vertex 6.455484e+000 3.000000e+000 1.762213e+002
      endloop
   endfacet
   facet normal -7.274188e-001 0.000000e+000 -6.861938e-001
      outer loop
         vertex 6.455484e+000 3.000000e+000 1.762213e+002
         vertex 6.455484e+000 0.000000e+000 1.762213e+002
         vertex 6.221296e+000 0.000000e+000 1.764555e+002
      endloop
   endfacet
   facet normal -6.861938e-001 0.000000e+000 -7.274188e-001
      outer loop
         vertex 6.455484e+000 3.000000e+000 1.762213e+002
         vertex 6.221296e+000 0.000000e+000 1.764555e+002
         vertex 6.221296e+000 3.000000e+000 1.764555e+002
      endloop
   endfacet
   facet normal -5.972114e-001 0.000000e+000 -8.020838e-001
      outer loop
         vertex 6.221296e+000 3.000000e+000 1.764555e+002
         vertex 6.221296e+000 0.000000e+000 1.764555e+002
         vertex 5.950000e+000 0.000000e+000 1.766455e+002
      endloop
   endfacet
   facet normal -5.494540e-001 0.000000e+000 -8.355240e-001
      outer loop
         vertex 6.221296e+000 3.000000e+000 1.764555e+002
         vertex 5.950000e+000 0.000000e+000 1.766455e+002
         vertex 5.950000e+000 3.000000e+000 1.766455e+002
      endloop
   endfacet
   facet normal -4.488580e-001 0.000000e+000 -8.936031e-001
      outer loop
         vertex 5.950000e+000 3.000000e+000 1.766455e+002
         vertex 5.950000e+000 0.000000e+000 1.766455e+002
         vertex 5.649838e+000 0.000000e+000 1.767854e+002
      endloop
   endfacet
   facet normal -3.960194e-001 0.000000e+000 -9.182422e-001
      outer loop
         vertex 5.950000e+000 3.000000e+000 1.766455e+002
         vertex 5.649838e+000 0.000000e+000 1.767854e+002
         vertex 5.649838e+000 3.000000e+000 1.767854e+002
      endloop
   endfacet
   facet normal -2.868663e-001 0.000000e+000 -9.579706e-001
      outer loop
         vertex 5.649838e+000 3.000000e+000 1.767854e+002
         vertex 5.649838e+000 0.000000e+000 1.767854e+002
         vertex 5.329932e+000 0.000000e+000 1.768711e+002
      endloop
   endfacet
   facet normal -2.305519e-001 0.000000e+000 -9.730600e-001
      outer loop
         vertex 5.649838e+000 3.000000e+000 1.767854e+002
         vertex 5.329932e+000 0.000000e+000 1.768711e+002
         vertex 5.329932e+000 3.000000e+000 1.768711e+002
      endloop
   endfacet
   facet normal -1.161583e-001 0.000000e+000 -9.932307e-001
      outer loop
         vertex 5.329932e+000 3.000000e+000 1.768711e+002
         vertex 5.329932e+000 0.000000e+000 1.768711e+002
         vertex 5.000000e+000 0.000000e+000 1.769000e+002
      endloop
   endfacet
   facet normal -5.807913e-002 0.000000e+000 -9.983119e-001
      outer loop
         vertex 5.329932e+000 3.000000e+000 1.768711e+002
         vertex 5.000000e+000 0.000000e+000 1.769000e+002
         vertex 5.000000e+000 3.000000e+000 1.769000e+002
      endloop
   endfacet
   facet normal 5.807913e-002 0.000000e+000 -9.983119e-001
      outer loop
         vertex 5.000000e+000 3.000000e+000 1.769000e+002
         vertex 5.000000e+000 0.000000e+000 1.769000e+002
         vertex 4.670068e+000 0.000000e+000 1.768711e+002
      endloop
   endfacet
   facet normal 1.161583e-001 0.000000e+000 -9.932307e-001
      outer loop
         vertex 5.000000e+000 3.000000e+000 1.769000e+002
         vertex 4.670068e+000 0.000000e+000 1.768711e+002
         vertex 4.670068e+000 3.000000e+000 1.768711e+002
      endloop
   endfacet
   facet normal 2.305519e-001 0.000000e+000 -9.730600e-001
      outer loop
         vertex 4.670068e+000 3.000000e+000 1.768711e+002
         vertex 4.670068e+000 0.000000e+000 1.768711e+002
         vertex 4.350162e+000 0.000000e+000 1.767854e+002
      endloop
   endfacet
   facet normal 2.868663e-001 0.000000e+000 -9.579706e-001
      outer loop
         vertex 4.670068e+000 3.000000e+000 1.768711e+002
         vertex 4.350162e+000 0.000000e+000 1.767854e+002
         vertex 4.350162e+000 3.000000e+000 1.767854e+002
      endloop
   endfacet
   facet normal 3.960194e-001 0.000000e+000 -9.182422e-001
      outer loop
         vertex 4.350162e+000 3.000000e+000 1.767854e+002
         vertex 4.350162e+000 0.000000e+000 1.767854e+002
         vertex 4.050000e+000 0.000000e+000 1.766455e+002
      endloop
   endfacet
   facet normal 4.488580e-001 0.000000e+000 -8.936031e-001
      outer loop
         vertex 4.350162e+000 3.000000e+000 1.767854e+002
         vertex 4.050000e+000 0.000000e+000 1.766455e+002
         vertex 4.050000e+000 3.000000e+000 1.766455e+002
      endloop
   endfacet
   facet normal 5.494540e-001 0.000000e+000 -8.355240e-001
      outer loop
         vertex 4.050000e+000 3.000000e+000 1.766455e+002
         vertex 4.050000e+000 0.000000e+000 1.766455e+002
         vertex 3.778703e+000 0.000000e+000 1.764555e+002
      endloop
   endfacet
   facet normal 5.972114e-001 0.000000e+000 -8.020838e-001
      outer loop
         vertex 4.050000e+000 3.000000e+000 1.766455e+002
         vertex 3.778703e+000 0.000000e+000 1.764555e+002
         vertex 3.778703e+000 3.000000e+000 1.764555e+002
      endloop
   endfacet
   facet normal 6.861938e-001 0.000000e+000 -7.274188e-001
      outer loop
         vertex 3.778703e+000 3.000000e+000 1.764555e+002
         vertex 3.778703e+000 0.000000e+000 1.764555e+002
         vertex 3.544515e+000 0.000000e+000 1.762213e+002
      endloop
   endfacet
   facet normal 7.274188e-001 0.000000e+000 -6.861938e-001
      outer loop
         vertex 3.778703e+000 3.000000e+000 1.764555e+002
         vertex 3.544515e+000 0.000000e+000 1.762213e+002
         vertex 3.544515e+000 3.000000e+000 1.762213e+002
      endloop
   endfacet
   facet normal 8.020838e-001 0.000000e+000 -5.972114e-001
      outer loop
         vertex 3.544515e+000 3.000000e+000 1.762213e+002
         vertex 3.544515e+000 0.000000e+000 1.762213e+002
         vertex 3.354552e+000 0.000000e+000 1.759500e+002
      endloop
   endfacet
   facet normal 8.355240e-001 0.000000e+000 -5.494540e-001
      outer loop
         vertex 3.544515e+000 3.000000e+000 1.762213e+002
         vertex 3.354552e+000 0.000000e+000 1.759500e+002
         vertex 3.354552e+000 3.000000e+000 1.759500e+002
      endloop
   endfacet
   facet normal 8.936031e-001 0.000000e+000 -4.488580e-001
      outer loop
         vertex 3.354552e+000 3.000000e+000 1.759500e+002
         vertex 3.354552e+000 0.000000e+000 1.759500e+002
         vertex 3.214584e+000 0.000000e+000 1.756499e+002
      endloop
   endfacet
   facet normal 9.182422e-001 0.000000e+000 -3.960194e-001
      outer loop
         vertex 3.354552e+000 3.000000e+000 1.759500e+002
         vertex 3.214584e+000 0.000000e+000 1.756499e+002
         vertex 3.214584e+000 3.000000e+000 1.756499e+002
      endloop
   endfacet
   facet normal 9.579706e-001 0.000000e+000 -2.868663e-001
      outer loop
         vertex 3.214584e+000 3.000000e+000 1.756499e+002
         vertex 3.214584e+000 0.000000e+000 1.756499e+002
         vertex 3.128865e+000 0.000000e+000 1.753299e+002
      endloop
   endfacet
   facet normal 9.730600e-001 0.000000e+000 -2.305519e-001
      outer loop
         vertex 3.214584e+000 3.000000e+000 1.756499e+002
         vertex 3.128865e+000 0.000000e+000 1.753299e+002
         vertex 3.128865e+000 3.000000e+000 1.753299e+002
      endloop
   endfacet
   facet normal 9.932307e-001 0.000000e+000 -1.161583e-001
      outer loop
         vertex 3.128865e+000 3.000000e+000 1.753299e+002
         vertex 3.128865e+000 0.000000e+000 1.753299e+002
         vertex 3.100000e+000 0.000000e+000 1.750000e+002
      endloop
   endfacet
   facet normal 9.983119e-001 0.000000e+000 -5.807913e-002
      outer loop
         vertex 3.128865e+000 3.000000e+000 1.753299e+002
         vertex 3.100000e+000 0.000000e+000 1.750000e+002
         vertex 3.100000e+000 3.000000e+000 1.750000e+002
      endloop
   endfacet
   facet normal 9.983119e-001 0.000000e+000 5.807913e-002
      outer loop
         vertex 3.100000e+000 3.000000e+000 1.750000e+002
         vertex 3.100000e+000 0.000000e+000 1.750000e+002
         vertex 3.128865e+000 0.000000e+000 1.746701e+002
      endloop
   endfacet
   facet normal 9.932307e-001 0.000000e+000 1.161583e-001
      outer loop
         vertex 3.100000e+000 3.000000e+000 1.750000e+002
         vertex 3.128865e+000 0.000000e+000 1.746701e+002
         vertex 3.128865e+000 3.000000e+000 1.746701e+002
      endloop
   endfacet
   facet normal 9.730600e-001 0.000000e+000 2.305519e-001
      outer loop
         vertex 3.128865e+000 3.000000e+000 1.746701e+002
         vertex 3.128865e+000 0.000000e+000 1.746701e+002
         vertex 3.214584e+000 0.000000e+000 1.743502e+002
      endloop
   endfacet
   facet normal 9.579706e-001 0.000000e+000 2.868663e-001
      outer loop
         vertex 3.128865e+000 3.000000e+000 1.746701e+002
         vertex 3.214584e+000 0.000000e+000 1.743502e+002
         vertex 3.214584e+000 3.000000e+000 1.743502e+002
      endloop
   endfacet
   facet normal 9.182422e-001 0.000000e+000 3.960194e-001
      outer loop
         vertex 3.214584e+000 3.000000e+000 1.743502e+002
         vertex 3.214584e+000 0.000000e+000 1.743502e+002
         vertex 3.354552e+000 0.000000e+000 1.740500e+002
      endloop
   endfacet
   facet normal 8.936031e-001 0.000000e+000 4.488580e-001
      outer loop
         vertex 3.214584e+000 3.000000e+000 1.743502e+002
         vertex 3.354552e+000 0.000000e+000 1.740500e+002
         vertex 3.354552e+000 3.000000e+000 1.740500e+002
      endloop
   endfacet
   facet normal 8.355240e-001 0.000000e+000 5.494540e-001
      outer loop
         vertex 3.354552e+000 3.000000e+000 1.740500e+002
         vertex 3.354552e+000 0.000000e+000 1.740500e+002
         vertex 3.544515e+000 0.000000e+000 1.737787e+002
      endloop
   endfacet
   facet normal 8.020838e-001 0.000000e+000 5.972114e-001
      outer loop
         vertex 3.354552e+000 3.000000e+000 1.740500e+002
         vertex 3.544515e+000 0.000000e+000 1.737787e+002
         vertex 3.544515e+000 3.000000e+000 1.737787e+002
      endloop
   endfacet
   facet normal 7.274188e-001 0.000000e+000 6.861938e-001
      outer loop
         vertex 3.544515e+000 3.000000e+000 1.737787e+002
         vertex 3.544515e+000 0.000000e+000 1.737787e+002
         vertex 3.778703e+000 0.000000e+000 1.735445e+002
      endloop
   endfacet
   facet normal 6.861938e-001 0.000000e+000 7.274188e-001
      outer loop
         vertex 3.544515e+000 3.000000e+000 1.737787e+002
         vertex 3.778703e+000 0.000000e+000 1.735445e+002
         vertex 3.778703e+000 3.000000e+000 1.735445e+002
      endloop
   endfacet
   facet normal 5.972114e-001 0.000000e+000 8.020838e-001
      outer loop
         vertex 3.778703e+000 3.000000e+000 1.735445e+002
         vertex 3.778703e+000 0.000000e+000 1.735445e+002
         vertex 4.050000e+000 0.000000e+000 1.733546e+002
      endloop
   endfacet
   facet normal 5.494540e-001 0.000000e+000 8.355240e-001
      outer loop
         vertex 3.778703e+000 3.000000e+000 1.735445e+002
         vertex 4.050000e+000 0.000000e+000 1.733546e+002
         vertex 4.050000e+000 3.000000e+000 1.733546e+002
      endloop
   endfacet
   facet normal 4.488580e-001 0.000000e+000 8.936031e-001
      outer loop
         vertex 4.050000e+000 3.000000e+000 1.733546e+002
         vertex 4.050000e+000 0.000000e+000 1.733546e+002
         vertex 4.350162e+000 0.000000e+000 1.732146e+002
      endloop
   endfacet
   facet normal 3.960194e-001 0.000000e+000 9.182422e-001
      outer loop
         vertex 4.050000e+000 3.000000e+000 1.733546e+002
         vertex 4.350162e+000 0.000000e+000 1.732146e+002
         vertex 4.350162e+000 3.000000e+000 1.732146e+002
      endloop
   endfacet
   facet normal 2.868663e-001 0.000000e+000 9.579706e-001
      outer loop
         vertex 4.350162e+000 3.000000e+000 1.732146e+002
         vertex 4.350162e+000 0.000000e+000 1.732146e+002
         vertex 4.670068e+000 0.000000e+000 1.731289e+002
      endloop
   endfacet
   facet normal 2.305519e-001 0.000000e+000 9.730600e-001
      outer loop
         vertex 4.350162e+000 3.000000e+000 1.732146e+002
         vertex 4.670068e+000 0.000000e+000 1.731289e+002
         vertex 4.670068e+000 3.000000e+000 1.731289e+002
      endloop
   endfacet
   facet normal 1.161583e-001 0.000000e+000 9.932307e-001
      outer loop
         vertex 4.670068e+000 3.000000e+000 1.731289e+002
         vertex 4.670068e+000 0.000000e+000 1.731289e+002
         vertex 5.000000e+000 0.000000e+000 1.731000e+002
      endloop
   endfacet
endsolid